<svg width="22" height="19" viewBox="0 0 22 19" version="1.1" xmlns="http://www.w3.org/2000/svg" xmlns:xlink="http://www.w3.org/1999/xlink">
<title>Vector</title>
<desc>Created using Figma</desc>
<g id="Canvas" transform="translate(-3820 -281)">
<g id="Vector">
<use xlink:href="#path0_fill" transform="translate(3820 281)" fill="#595959"/>
</g>
</g>
<defs>
<path id="path0_fill" d="M 21.7071 8.80501L 13.0404 0.28785C 12.6499 -0.0959498 12.0167 -0.0959498 11.6262 0.28785C 11.2357 0.671649 11.2357 1.29386 11.6262 1.67766L 18.5859 8.51739L 0.999867 8.51831C 0.447667 8.51831 0 8.95832 0 9.50107C 0 10.0438 0.4478 10.4838 1.00007 10.4838L 18.5857 10.4828L 11.6263 17.3223C 11.2357 17.7061 11.2357 18.3283 11.6263 18.7121C 11.8215 18.904 12.0774 19 12.3333 19C 12.5893 19 12.8452 18.904 13.0404 18.7121L 21.7071 10.1948C 21.8946 10.0105 22 9.76058 22 9.49995C 22 9.23932 21.8947 8.98931 21.7071 8.80501Z"/>
</defs>
</svg>
