<svg width="13" height="13" viewBox="0 0 13 13" version="1.1" xmlns="http://www.w3.org/2000/svg" xmlns:xlink="http://www.w3.org/1999/xlink">
<title>emoticon</title>
<desc>Created using Figma</desc>
<g id="Canvas" transform="translate(-7433 -554)">
<g id="emoticon">
<g id="Group">
<g id="Vector">
<use xlink:href="#path0_fill" transform="translate(7436.5 558)" fill="#909090"/>
</g>
<g id="Vector">
<use xlink:href="#path0_fill" transform="translate(7440.5 558)" fill="#909090"/>
</g>
<g id="Vector">
<use xlink:href="#path1_fill" transform="translate(7433 554)" fill="#909090"/>
</g>
<g id="Vector">
<use xlink:href="#path2_fill" transform="translate(7437 561.5)" fill="#909090"/>
</g>
</g>
</g>
</g>
<defs>
<path id="path0_fill" d="M 1 2C 1.55228 2 2 1.55228 2 1C 2 0.447715 1.55228 0 1 0C 0.447715 0 0 0.447715 0 1C 0 1.55228 0.447715 2 1 2Z"/>
<path id="path1_fill" d="M 6.5 0C 2.9 0 0 2.9 0 6.5C 0 10.1 2.9 13 6.5 13C 10.1 13 13 10.1 13 6.5C 13 2.9 10.1 0 6.5 0ZM 6.5 11C 4 11 2 9 2 6.5C 2 4 4 2 6.5 2C 9 2 11 4 11 6.5C 11 9 9 11 6.5 11Z"/>
<path id="path2_fill" d="M 4.15 0.15C 4.05 0.0500001 3.9 0 3.8 0C 3.7 0 3.55 0.0500001 3.45 0.15C 3.25 0.35 2.85 0.5 2.5 0.5C 2.15 0.5 1.75 0.35 1.55 0.15C 1.45 0.0500001 1.3 0 1.2 0C 1.1 0 0.95 0.0500001 0.85 0.15L 0.15 0.85C 0.0500001 0.95 -8.88178e-16 1.1 -8.88178e-16 1.2C -8.88178e-16 1.35 0.0500001 1.45 0.15 1.55C 0.75 2.15 1.6 2.5 2.5 2.5C 3.4 2.5 4.25 2.15 4.85 1.55C 4.95 1.45 5 1.3 5 1.2C 5 1.05 4.95 0.95 4.85 0.85L 4.15 0.15Z"/>
</defs>
</svg>
