<svg width="19" height="22" viewBox="0 0 19 22" version="1.1" xmlns="http://www.w3.org/2000/svg" xmlns:xlink="http://www.w3.org/1999/xlink">
<title>copy</title>
<desc>Created using Figma</desc>
<g id="Canvas" transform="translate(-348 483)">
<rect x="348" y="-483" width="19" height="22" fill="#E5E5E5"/>
<clipPath id="clip-0" clip-rule="evenodd">
<path d="M -720 -513L 720 -513L 720 2291L -720 2291L -720 -513Z" fill="#FFFFFF"/>
</clipPath>
<g id="&#208;&#147;&#208;&#187;&#208;&#176;&#208;&#178;&#208;&#189;&#208;&#176;&#209;&#143;" clip-path="url(#clip-0)">
<path d="M -720 -513L 720 -513L 720 2291L -720 2291L -720 -513Z" fill="#F3EEE8"/>
<g id="&#208;&#168;&#208;&#176;&#208;&#191;&#208;&#186;&#208;&#176;">
<g id="Rectangle">
<use xlink:href="#path0_fill" transform="translate(-720 -513)" fill="#FFFFFF"/>
</g>
<g id="&#208;&#154;&#208;&#176;&#209;&#130;&#208;&#176;&#208;&#187;&#208;&#190;&#208;&#179;">
<g id="copy">
<g id="Group">
<g id="Vector">
<use xlink:href="#path1_fill" transform="translate(348 -483)" fill="#D1CDC9"/>
</g>
<g id="Vector">
<use xlink:href="#path2_fill" transform="translate(355.862 -475)" fill="#D1CDC9"/>
</g>
<g id="Vector">
<use xlink:href="#path3_fill" transform="translate(355.862 -471)" fill="#D1CDC9"/>
</g>
<g id="Vector">
<use xlink:href="#path3_fill" transform="translate(355.862 -467)" fill="#D1CDC9"/>
</g>
</g>
</g>
</g>
</g>
</g>
</g>
<defs>
<path id="path0_fill" d="M 0 0L 1440 0L 1440 127L 0 127L 0 0Z"/>
<path id="path1_fill" d="M 0.982759 18L 3.93103 18L 3.93103 21C 3.93103 21.5523 4.37105 22 4.91379 22L 18.0172 22C 18.56 22 19 21.5523 19 21L 19 5C 19 4.44773 18.56 4 18.0172 4L 15.069 4L 15.069 1C 15.069 0.447733 14.629 0 14.0862 0L 0.982759 0C 0.440014 0 0 0.447733 0 1L 0 17C 0 17.5523 0.440014 18 0.982759 18ZM 17.0345 20L 5.89655 20L 5.89655 6L 17.0345 6L 17.0345 20ZM 1.96552 2L 13.1034 2L 13.1034 4L 4.91379 4C 4.37105 4 3.93103 4.44773 3.93103 5L 3.93103 16L 1.96552 16L 1.96552 2Z"/>
<path id="path2_fill" d="M 0.982759 0C 0.440014 0 0 0.447733 0 1C 0 1.55227 0.440014 2 0.982759 2L 6.22414 2C 6.76688 2 7.2069 1.55227 7.2069 1C 7.2069 0.447733 6.76688 0 6.22414 0L 0.982759 0Z"/>
<path id="path3_fill" d="M 6.22414 0L 0.982759 0C 0.440014 0 0 0.447733 0 1C 0 1.55227 0.440014 2 0.982759 2L 6.22414 2C 6.76688 2 7.2069 1.55227 7.2069 1C 7.2069 0.447733 6.76688 0 6.22414 0Z"/>
</defs>
</svg>
