<svg width="22" height="22" viewBox="0 0 22 22" version="1.1" xmlns="http://www.w3.org/2000/svg" xmlns:xlink="http://www.w3.org/1999/xlink">
<title>search</title>
<desc>Created using Figma</desc>
<g id="Canvas" transform="translate(-228 483)">
<rect x="228" y="-483" width="22" height="22" fill="#E5E5E5"/>
<clipPath id="clip-0" clip-rule="evenodd">
<path d="M -720 -513L 720 -513L 720 2291L -720 2291L -720 -513Z" fill="#FFFFFF"/>
</clipPath>
<g id="&#208;&#147;&#208;&#187;&#208;&#176;&#208;&#178;&#208;&#189;&#208;&#176;&#209;&#143;" clip-path="url(#clip-0)">
<path d="M -720 -513L 720 -513L 720 2291L -720 2291L -720 -513Z" fill="#F3EEE8"/>
<g id="&#208;&#168;&#208;&#176;&#208;&#191;&#208;&#186;&#208;&#176;">
<g id="Rectangle">
<use xlink:href="#path0_fill" transform="translate(-720 -513)" fill="#FFFFFF"/>
</g>
<g id="&#208;&#159;&#208;&#190;&#208;&#184;&#209;&#129;&#208;&#186;">
<g id="search">
<g id="Vector">
<use xlink:href="#path1_fill" transform="translate(228 -483)" fill="#D1CDC9"/>
</g>
</g>
</g>
</g>
</g>
</g>
<defs>
<path id="path0_fill" d="M 0 0L 1440 0L 1440 127L 0 127L 0 0Z"/>
<path id="path1_fill" d="M 21.7071 20.2929L 14.8885 13.4745C 16.0023 12.0574 16.6674 10.2717 16.6674 8.33373C 16.6674 3.73847 12.9289 0 8.33367 0C 3.73847 0 0 3.73847 0 8.33373C 0 12.9289 3.73847 16.6673 8.33367 16.6673C 10.2717 16.6673 12.0573 16.0023 13.4743 14.8886L 20.2929 21.7071C 20.4881 21.9024 20.7441 22 21 22C 21.2559 22 21.5119 21.9024 21.7071 21.7071C 22.0977 21.3166 22.0977 20.6834 21.7071 20.2929ZM 2 8.33373C 2 4.84127 4.84127 2 8.33367 2C 11.8261 2 14.6674 4.84127 14.6674 8.33367C 14.6674 11.8261 11.8261 14.6673 8.33367 14.6673C 4.84127 14.6673 2 11.8261 2 8.33373Z"/>
</defs>
</svg>
