<svg width="15" height="22" viewBox="0 0 15 22" version="1.1" xmlns="http://www.w3.org/2000/svg" xmlns:xlink="http://www.w3.org/1999/xlink">
<title>shopping-bag</title>
<desc>Created using Figma</desc>
<g id="Canvas" transform="translate(-493 466)">
<rect x="493" y="-466" width="15" height="22" fill="#E5E5E5"/>
<clipPath id="clip-0" clip-rule="evenodd">
<path d="M -720 -513L 720 -513L 720 2291L -720 2291L -720 -513Z" fill="#FFFFFF"/>
</clipPath>
<g id="&#208;&#147;&#208;&#187;&#208;&#176;&#208;&#178;&#208;&#189;&#208;&#176;&#209;&#143;" clip-path="url(#clip-0)">
<path d="M -720 -513L 720 -513L 720 2291L -720 2291L -720 -513Z" fill="#F3EEE8"/>
<g id="&#208;&#168;&#208;&#176;&#208;&#191;&#208;&#186;&#208;&#176;">
<g id="Rectangle">
<use xlink:href="#path0_fill" transform="translate(-712 -496)" fill="#FFFFFF"/>
</g>
<g id="&#208;&#154;&#208;&#190;&#209;&#128;&#208;&#183;&#208;&#184;&#208;&#189;&#208;&#176;">
<g id="shopping-bag">
<g id="XMLID 788">
<use xlink:href="#path1_fill" transform="translate(493 -466)" fill="#473729"/>
</g>
</g>
</g>
</g>
</g>
</g>
<defs>
<path id="path0_fill" d="M 0 0L 1440 0L 1440 127L 0 127L 0 0Z"/>
<path id="path1_fill" d="M 14.0217 5.3316L 11.087 5.3316L 11.087 3.66667C 11.087 1.6448 9.47785 0 7.5 0C 5.52215 0 3.91304 1.64487 3.91304 3.66667L 3.91304 5.3316L 0.978261 5.3316C 0.438 5.3316 0 5.77933 0 6.3316L 0 21C 0 21.5523 0.438 22 0.978261 22L 14.0217 22C 14.562 22 15 21.5523 15 21L 15 6.3316C 15 5.77933 14.562 5.3316 14.0217 5.3316ZM 5.86957 3.66667C 5.86957 2.74767 6.60098 2 7.5 2C 8.39902 2 9.13043 2.74767 9.13043 3.66667L 9.13043 5.3316L 5.86957 5.3316L 5.86957 3.66667ZM 13.0435 20L 1.95652 20L 1.95652 7.3316L 3.91304 7.3316L 3.91304 8.99827C 3.91304 9.55053 4.35104 9.99827 4.8913 9.99827C 5.43157 9.99827 5.86957 9.55053 5.86957 8.99827L 5.86957 7.3316L 9.13043 7.3316L 9.13043 8.99827C 9.13043 9.55053 9.56843 9.99827 10.1087 9.99827C 10.649 9.99827 11.087 9.55053 11.087 8.99827L 11.087 7.3316L 13.0435 7.3316L 13.0435 20Z"/>
</defs>
</svg>
