<svg width="11" height="13" viewBox="0 0 11 13" version="1.1" xmlns="http://www.w3.org/2000/svg" xmlns:xlink="http://www.w3.org/1999/xlink">
<title>user</title>
<desc>Created using Figma</desc>
<g id="Canvas" transform="translate(179 479)">
<rect x="-179" y="-479" width="11" height="13" fill="#E5E5E5"/>
<clipPath id="clip-0" clip-rule="evenodd">
<path d="M -720 -513L 720 -513L 720 2291L -720 2291L -720 -513Z" fill="#FFFFFF"/>
</clipPath>
<g id="&#208;&#147;&#208;&#187;&#208;&#176;&#208;&#178;&#208;&#189;&#208;&#176;&#209;&#143;" clip-path="url(#clip-0)">
<path d="M -720 -513L 720 -513L 720 2291L -720 2291L -720 -513Z" fill="#F3EEE8"/>
<g id="&#208;&#168;&#208;&#176;&#208;&#191;&#208;&#186;&#208;&#176;">
<g id="Rectangle">
<use xlink:href="#path0_fill" transform="translate(-720 -513)" fill="#FFFFFF"/>
</g>
<g id="&#208;&#155;&#208;&#184;&#209;&#135;&#208;&#189;&#209;&#139;&#208;&#185; &#208;&#186;&#208;&#176;&#208;&#177;&#208;&#184;&#208;&#189;&#208;&#181;&#209;&#130;">
<g id="user">
<g id="Vector">
<use xlink:href="#path1_fill" transform="translate(-179 -479)" fill="#D1CDC9"/>
</g>
</g>
</g>
</g>
</g>
</g>
<defs>
<path id="path0_fill" d="M 0 0L 1440 0L 1440 127L 0 127L 0 0Z"/>
<path id="path1_fill" d="M 8.05 6.37452C 7.9 6.32432 7.85 6.17375 7.9 6.07336C 7.9 6.02317 7.95 6.02317 7.95 5.97297C 8.6 5.32046 9 4.46718 9 3.51351C 9 1.55598 7.45 0 5.5 0C 3.55 0 2 1.55598 2 3.51351C 2 4.46718 2.4 5.37066 3.05 5.97297C 3.1 6.02317 3.1 6.02317 3.1 6.07336C 3.15 6.22394 3.1 6.32432 2.95 6.37452C 0.3 7.32819 2.38419e-08 9.88803 2.38419e-08 12.4981C 2.38419e-08 12.7992 0.2 13 0.5 13L 1.5 13C 1.8 13 2 12.7992 2 12.4981C 2 9.03475 2.5 7.98069 5.5 7.98069C 8.5 7.98069 9 9.03475 9 12.4981C 9 12.7992 9.2 13 9.5 13L 10.5 13C 10.8 13 11 12.7992 11 12.4981C 11 9.88803 10.7 7.32819 8.05 6.37452ZM 5.5 4.96911C 4.65 4.96911 4 4.3166 4 3.46332C 4 2.61004 4.65 1.95753 5.5 1.95753C 6.35 1.95753 7 2.61004 7 3.46332C 7 4.3166 6.35 4.96911 5.5 4.96911Z"/>
</defs>
</svg>
